<?xml version="1.0" standalone="no"?>
<!DOCTYPE svg PUBLIC "-//W3C//DTD SVG 20010904//EN"
 "http://www.w3.org/TR/2001/REC-SVG-20010904/DTD/svg10.dtd">
<svg version="1.0" xmlns="http://www.w3.org/2000/svg"
 width="310.000000pt" height="310.000000pt" viewBox="0 0 310.000000 310.000000"
 preserveAspectRatio="xMidYMid meet">
<metadata>
Created by potrace 1.11, written by Peter Selinger 2001-2013
</metadata>
<g transform="translate(0.000000,310.000000) scale(0.100000,-0.100000)"
fill="#000000" stroke="none">
<path d="M1414 2955 c-139 -44 -234 -143 -275 -286 -26 -91 -29 -107 -33 -189
-5 -92 -11 -107 -54 -121 -20 -6 -41 -14 -47 -18 -5 -3 -12 -6 -15 -7 -3 0
-12 -3 -20 -7 -8 -3 -60 -20 -115 -37 -55 -18 -113 -38 -130 -45 -50 -21 -94
-37 -99 -36 -6 0 -211 -103 -241 -121 -110 -70 -200 -162 -227 -233 -30 -80
-17 -208 26 -251 9 -8 21 -23 28 -32 18 -24 66 -49 113 -58 22 -5 43 -9 48
-10 4 -1 25 -2 48 -3 29 -1 38 -4 33 -13 -5 -10 -4 -10 5 -2 14 13 166 8 232
-7 33 -7 50 -18 60 -35 15 -28 14 -73 -1 -88 -6 -6 -10 -18 -10 -28 0 -15 -61
-139 -120 -243 -174 -307 -297 -553 -315 -630 -10 -46 -27 -111 -32 -125 -10
-27 -15 -94 -9 -126 5 -22 16 -36 39 -48 29 -16 70 -17 440 -14 l408 3 37 40
c20 23 42 50 49 60 78 128 99 160 105 163 5 2 8 8 8 14 0 18 98 171 137 215
52 58 73 61 116 21 19 -18 43 -46 53 -63 10 -16 22 -34 27 -40 4 -5 49 -77 99
-160 50 -82 104 -167 121 -188 53 -69 43 -67 481 -67 414 0 433 1 456 45 12
22 4 165 -10 183 -3 2 -4 6 -14 47 -8 32 -28 86 -52 145 -35 82 -177 360 -185
360 -5 0 -9 5 -9 11 0 5 -33 69 -73 142 -136 248 -154 291 -142 355 9 49 37
57 230 67 191 9 232 18 297 64 76 54 109 187 72 291 -45 125 -222 258 -479
360 -85 34 -357 129 -389 135 -10 2 -24 9 -30 15 -7 5 -15 8 -18 5 -14 -14
-29 29 -32 91 -2 38 -5 69 -6 69 -1 0 -4 16 -5 35 -2 19 -5 42 -8 50 -18 69
-31 108 -40 125 -6 11 -12 22 -12 25 0 3 -13 24 -28 46 -47 69 -122 121 -216
150 -57 17 -221 17 -277 -1z"/>
</g>
</svg>
